<svg width="844" height="133" viewBox="0 0 844 133" fill="none" xmlns="http://www.w3.org/2000/svg">
<rect width="844" height="133" fill="#F5F5F5"/>
<g filter="url(#filter0_d_0_1)">
<path d="M26.824 17.68V35.856H56.136V52.752H26.824V72.464H59.976V90H4.936V0.143997H59.976V17.68H26.824ZM165.322 17.808C174.197 17.808 181.237 20.496 186.442 25.872C191.733 31.248 194.378 38.7147 194.378 48.272V90H172.618V51.216C172.618 46.608 171.381 43.0667 168.906 40.592C166.517 38.032 163.189 36.752 158.922 36.752C154.655 36.752 151.285 38.032 148.81 40.592C146.421 43.0667 145.226 46.608 145.226 51.216V90H123.466V51.216C123.466 46.608 122.229 43.0667 119.754 40.592C117.365 38.032 114.037 36.752 109.77 36.752C105.503 36.752 102.133 38.032 99.658 40.592C97.2687 43.0667 96.074 46.608 96.074 51.216V90H74.186V18.576H96.074V27.536C98.2927 24.5493 101.194 22.2027 104.778 20.496C108.362 18.704 112.415 17.808 116.938 17.808C122.314 17.808 127.093 18.96 131.274 21.264C135.541 23.568 138.869 26.8533 141.258 31.12C143.733 27.1947 147.103 23.9947 151.37 21.52C155.637 19.0453 160.287 17.808 165.322 17.808ZM231.574 28.688C233.707 25.36 236.651 22.672 240.406 20.624C244.161 18.576 248.555 17.552 253.59 17.552C259.478 17.552 264.811 19.0453 269.59 22.032C274.369 25.0187 278.123 29.2853 280.854 34.832C283.67 40.3787 285.078 46.8213 285.078 54.16C285.078 61.4987 283.67 67.984 280.854 73.616C278.123 79.1627 274.369 83.472 269.59 86.544C264.811 89.5307 259.478 91.024 253.59 91.024C248.641 91.024 244.246 90 240.406 87.952C236.651 85.904 233.707 83.2587 231.574 80.016V124.048H209.686V18.576H231.574V28.688ZM262.806 54.16C262.806 48.6987 261.27 44.432 258.198 41.36C255.211 38.2027 251.499 36.624 247.062 36.624C242.71 36.624 238.998 38.2027 235.926 41.36C232.939 44.5173 231.446 48.8267 231.446 54.288C231.446 59.7493 232.939 64.0587 235.926 67.216C238.998 70.3733 242.71 71.952 247.062 71.952C251.414 71.952 255.126 70.3733 258.198 67.216C261.27 63.9733 262.806 59.6213 262.806 54.16ZM329.073 91.024C322.076 91.024 315.761 89.5307 310.129 86.544C304.582 83.5573 300.188 79.2907 296.945 73.744C293.788 68.1973 292.209 61.712 292.209 54.288C292.209 46.9493 293.83 40.5067 297.073 34.96C300.316 29.328 304.753 25.0187 310.385 22.032C316.017 19.0453 322.332 17.552 329.329 17.552C336.326 17.552 342.641 19.0453 348.273 22.032C353.905 25.0187 358.342 29.328 361.585 34.96C364.828 40.5067 366.449 46.9493 366.449 54.288C366.449 61.6267 364.785 68.112 361.457 73.744C358.214 79.2907 353.734 83.5573 348.017 86.544C342.385 89.5307 336.07 91.024 329.073 91.024ZM329.073 72.08C333.254 72.08 336.796 70.544 339.697 67.472C342.684 64.4 344.177 60.0053 344.177 54.288C344.177 48.5707 342.726 44.176 339.825 41.104C337.009 38.032 333.51 36.496 329.329 36.496C325.062 36.496 321.521 38.032 318.705 41.104C315.889 44.0907 314.481 48.4853 314.481 54.288C314.481 60.0053 315.846 64.4 318.577 67.472C321.393 70.544 324.892 72.08 329.073 72.08ZM480.589 18.576L461.261 90H437.069L425.805 43.664L414.157 90H390.093L370.637 18.576H392.525L402.637 69.648L414.669 18.576H437.837L449.997 69.392L459.981 18.576H480.589ZM556.264 53.136C556.264 55.184 556.136 57.3173 555.88 59.536H506.344C506.685 63.9733 508.093 67.3867 510.568 69.776C513.128 72.08 516.243 73.232 519.912 73.232C525.373 73.232 529.171 70.928 531.304 66.32H554.6C553.405 71.0133 551.229 75.2373 548.072 78.992C545 82.7467 541.117 85.6907 536.424 87.824C531.731 89.9573 526.483 91.024 520.68 91.024C513.683 91.024 507.453 89.5307 501.992 86.544C496.531 83.5573 492.264 79.2907 489.192 73.744C486.12 68.1973 484.584 61.712 484.584 54.288C484.584 46.864 486.077 40.3787 489.064 34.832C492.136 29.2853 496.403 25.0187 501.864 22.032C507.325 19.0453 513.597 17.552 520.68 17.552C527.592 17.552 533.736 19.0027 539.112 21.904C544.488 24.8053 548.669 28.944 551.656 34.32C554.728 39.696 556.264 45.968 556.264 53.136ZM533.864 47.376C533.864 43.6213 532.584 40.6347 530.024 38.416C527.464 36.1973 524.264 35.088 520.424 35.088C516.755 35.088 513.64 36.1547 511.08 38.288C508.605 40.4213 507.069 43.4507 506.472 47.376H533.864ZM589.699 30.48C592.259 26.5547 595.459 23.4827 599.299 21.264C603.139 18.96 607.406 17.808 612.099 17.808V40.976H606.083C600.622 40.976 596.526 42.1707 593.795 44.56C591.064 46.864 589.699 50.96 589.699 56.848V90H567.811V18.576H589.699V30.48ZM700.385 0.143997V90H678.497V53.008H644.449V90H622.561V0.143997H644.449V35.344H678.497V0.143997H700.385ZM783.514 53.136C783.514 55.184 783.386 57.3173 783.13 59.536H733.594C733.935 63.9733 735.343 67.3867 737.818 69.776C740.378 72.08 743.493 73.232 747.162 73.232C752.623 73.232 756.421 70.928 758.554 66.32H781.85C780.655 71.0133 778.479 75.2373 775.322 78.992C772.25 82.7467 768.367 85.6907 763.674 87.824C758.981 89.9573 753.733 91.024 747.93 91.024C740.933 91.024 734.703 89.5307 729.242 86.544C723.781 83.5573 719.514 79.2907 716.442 73.744C713.37 68.1973 711.834 61.712 711.834 54.288C711.834 46.864 713.327 40.3787 716.314 34.832C719.386 29.2853 723.653 25.0187 729.114 22.032C734.575 19.0453 740.847 17.552 747.93 17.552C754.842 17.552 760.986 19.0027 766.362 21.904C771.738 24.8053 775.919 28.944 778.906 34.32C781.978 39.696 783.514 45.968 783.514 53.136ZM761.114 47.376C761.114 43.6213 759.834 40.6347 757.274 38.416C754.714 36.1973 751.514 35.088 747.674 35.088C744.005 35.088 740.89 36.1547 738.33 38.288C735.855 40.4213 734.319 43.4507 733.722 47.376H761.114ZM816.949 30.48C819.509 26.5547 822.709 23.4827 826.549 21.264C830.389 18.96 834.656 17.808 839.349 17.808V40.976H833.333C827.872 40.976 823.776 42.1707 821.045 44.56C818.314 46.864 816.949 50.96 816.949 56.848V90H795.061V18.576H816.949V30.48Z" fill="#D21E1E" fill-opacity="0.99" shape-rendering="crispEdges"/>
</g>
<defs>
<filter id="filter0_d_0_1" x="0.936035" y="0.144043" width="842.413" height="131.904" filterUnits="userSpaceOnUse" color-interpolation-filters="sRGB">
<feFlood flood-opacity="0" result="BackgroundImageFix"/>
<feColorMatrix in="SourceAlpha" type="matrix" values="0 0 0 0 0 0 0 0 0 0 0 0 0 0 0 0 0 0 127 0" result="hardAlpha"/>
<feOffset dy="4"/>
<feGaussianBlur stdDeviation="2"/>
<feComposite in2="hardAlpha" operator="out"/>
<feColorMatrix type="matrix" values="0 0 0 0 0 0 0 0 0 0 0 0 0 0 0 0 0 0 0.25 0"/>
<feBlend mode="normal" in2="BackgroundImageFix" result="effect1_dropShadow_0_1"/>
<feBlend mode="normal" in="SourceGraphic" in2="effect1_dropShadow_0_1" result="shape"/>
</filter>
</defs>
</svg>
